<svg width="70" height="70" viewBox="0 0 70 70" fill="none" xmlns="http://www.w3.org/2000/svg">
<g clip-path="url(#clip0_16_65)">
<path d="M29.4583 46.3748L33.6 42.2332C25.6375 35.1457 20.4166 30.3623 20.4166 25.8123C20.4166 22.7498 22.75 20.4165 25.8125 20.4165C29.05 20.4165 30.3041 22.3123 33.6291 26.2498H36.3416C39.6083 22.429 40.8041 20.4165 44.1583 20.4165C46.6958 20.4165 48.6791 21.9915 49.3208 24.2665C50.3416 24.1498 51.3041 24.0915 52.2375 24.0915C53.2875 24.0915 54.2791 24.179 55.2416 24.3248C54.5416 18.754 49.9625 14.5832 44.1875 14.5832C43.8375 14.5832 43.5166 14.6707 43.1666 14.6998C43.5166 13.7373 43.75 12.7457 43.75 11.6665C43.75 6.82484 39.8416 2.9165 35 2.9165C30.1583 2.9165 26.25 6.82484 26.25 11.6665C26.25 12.7457 26.4833 13.7373 26.8333 14.6998C26.4833 14.6707 26.1625 14.5832 25.8125 14.5832C19.5125 14.5832 14.5833 19.5123 14.5833 25.8123C14.5833 32.8707 20.5333 38.3832 29.4583 46.3748Z" fill="black"/>
<path d="M65.625 47.3665C64.6917 46.8415 63.7 46.5206 62.7083 46.3456C62.9125 46.054 63.1458 45.8206 63.3208 45.529C66.4708 40.0748 64.6625 33.3373 59.2083 30.1873C53.1125 26.6581 45.325 29.0498 33.9792 32.8123L35.4958 38.4706C45.6167 35.1456 52.3833 32.9873 56.3208 35.2623C58.975 36.8081 59.8208 39.9581 58.3042 42.6415C56.6708 45.4415 54.425 45.5581 49.35 46.4915L47.9792 48.854C49.6708 53.579 50.8083 55.6498 49.1167 58.5373C47.5708 61.1915 44.4208 62.0373 41.7375 60.5206C41.5625 60.4331 41.4167 60.2581 41.2417 60.1415C40.3667 62.0956 39.375 63.7581 38.2375 65.1873C38.4417 65.304 38.6167 65.4498 38.8208 65.5956C44.275 68.7456 51.0125 66.9373 54.1625 61.4831C54.3375 61.1915 54.425 60.8706 54.5708 60.5498C55.2125 61.3373 55.9708 62.0373 56.9042 62.5623C61.075 64.9831 66.4417 63.554 68.8625 59.354C71.2833 55.154 69.7958 49.7581 65.625 47.3665Z" fill="black"/>
<path d="M35.9333 40.8624C33.775 51.3041 32.2292 58.2166 28.2917 60.4916C25.6375 62.0374 22.4583 61.1916 20.9125 58.5083C19.2792 55.7083 20.3292 53.6666 22.05 48.8249L20.7083 46.4624C15.75 45.5583 13.4167 45.4999 11.7542 42.6124C10.2083 39.9583 11.0542 36.7791 13.7375 35.2333C14 35.0874 14.2917 34.9999 14.5833 34.9124C13.5625 33.2791 12.7167 31.4999 12.1917 29.5166C11.725 29.7208 11.2583 29.9249 10.7917 30.1874C5.33749 33.3374 3.52915 40.0749 6.67915 45.5291C6.85415 45.8208 7.08749 46.0541 7.29165 46.3458C6.29999 46.5208 5.30832 46.8416 4.37499 47.3666C0.204152 49.7874 -1.25418 55.1249 1.16665 59.3249C3.58749 63.5249 8.92499 64.9541 13.125 62.5333C14.0583 62.0083 14.8167 61.3083 15.4583 60.5208C15.6042 60.8416 15.6917 61.1624 15.8667 61.4541C19.0167 66.9083 25.7542 68.7166 31.2083 65.5666C37.3042 62.0374 39.1125 54.1041 41.5625 42.4083L35.9333 40.8624Z" fill="black"/>
</g>
<defs>
<clipPath id="clip0_16_65">
<rect width="70" height="70" fill="white"/>
</clipPath>
</defs>
</svg>
