<svg width="33" height="26" viewBox="0 0 33 26" fill="none" xmlns="http://www.w3.org/2000/svg">
<path d="M31.35 14.625H1.65C1.21239 14.625 0.792709 14.4537 0.483273 14.149C0.173839 13.8443 0 13.431 0 13C0 12.569 0.173839 12.1557 0.483273 11.8509C0.792709 11.5462 1.21239 11.375 1.65 11.375H31.35C31.7876 11.375 32.2073 11.5462 32.5167 11.8509C32.8261 12.1557 33 12.569 33 13C33 13.431 32.8261 13.8443 32.5167 14.149C32.2073 14.4537 31.7876 14.625 31.35 14.625ZM31.35 3.25H1.65C1.21239 3.25 0.792709 3.07879 0.483273 2.77405C0.173839 2.4693 0 2.05598 0 1.625C0 1.19402 0.173839 0.780699 0.483273 0.475946C0.792709 0.17121 1.21239 0 1.65 0H31.35C31.7876 0 32.2073 0.17121 32.5167 0.475946C32.8261 0.780699 33 1.19402 33 1.625C33 2.05598 32.8261 2.4693 32.5167 2.77405C32.2073 3.07879 31.7876 3.25 31.35 3.25ZM31.35 26H1.65C1.21239 26 0.792709 25.8287 0.483273 25.524C0.173839 25.2193 0 24.806 0 24.375C0 23.944 0.173839 23.5307 0.483273 23.226C0.792709 22.9213 1.21239 22.75 1.65 22.75H31.35C31.7876 22.75 32.2073 22.9213 32.5167 23.226C32.8261 23.5307 33 23.944 33 24.375C33 24.806 32.8261 25.2193 32.5167 25.524C32.2073 25.8287 31.7876 26 31.35 26Z" fill="white"/>
</svg>
