<svg width="40" height="40" viewBox="0 0 40 40" fill="none" xmlns="http://www.w3.org/2000/svg">
<path d="M38.6625 18.6625C29.1126 18.6625 21.3375 10.8875 21.3375 1.3375C21.3375 0.599975 20.7375 0 20 0C19.2625 0 18.6625 0.599975 18.6625 1.33751C18.6625 10.8874 10.8875 18.6625 1.3375 18.6625C0.60005 18.6625 0 19.2625 0 20C0 20.7375 0.60005 21.3375 1.33751 21.3375C10.8875 21.3375 18.6625 29.1125 18.6625 38.6625C18.6625 39.4 19.2625 40 20 40C20.7375 40 21.3375 39.4 21.3375 38.6625C21.3375 29.1125 29.1126 21.3375 38.6625 21.3375C39.4 21.3375 40 20.7375 40 20C40 19.2625 39.4 18.6625 38.6625 18.6625Z" fill="#222222"/>
</svg>
