<svg width="22" height="22" viewBox="0 0 22 22" fill="none" xmlns="http://www.w3.org/2000/svg">
<path d="M11 0C4.928 0 0 4.928 0 11C0 17.072 4.928 22 11 22H16.5V19.8H11C6.226 19.8 2.2 15.774 2.2 11C2.2 6.226 6.226 2.2 11 2.2C15.774 2.2 19.8 6.226 19.8 11V12.573C19.8 13.442 19.019 14.3 18.15 14.3C17.281 14.3 16.5 13.442 16.5 12.573V11C16.5 7.964 14.036 5.5 11 5.5C7.964 5.5 5.5 7.964 5.5 11C5.5 14.036 7.964 16.5 11 16.5C12.518 16.5 13.904 15.884 14.894 14.883C15.609 15.862 16.841 16.5 18.15 16.5C20.317 16.5 22 14.74 22 12.573V11C22 4.928 17.072 0 11 0ZM11 14.3C9.174 14.3 7.7 12.826 7.7 11C7.7 9.174 9.174 7.7 11 7.7C12.826 7.7 14.3 9.174 14.3 11C14.3 12.826 12.826 14.3 11 14.3Z" fill="white"/>
</svg>
